<?xml version="1.0" encoding="UTF-8"?>
<svg width="15px" height="20px" viewBox="0 0 15 20" version="1.1" xmlns="http://www.w3.org/2000/svg" xmlns:xlink="http://www.w3.org/1999/xlink">
    <!-- Generator: Sketch 55.2 (78181) - https://sketchapp.com -->
    <!-- <title>icon/content/female-sm</title> -->
    <desc>Created with Sketch.</desc>
    <g id="页面1" stroke="none" stroke-width="1" fill="none" fill-rule="evenodd">
        <path d="M5.47294228,2.80552455 C5.47294228,2.45923239 5.47294228,2.04768105 5.47294228,1.57087054 C5.97911936,0.523623512 6.64466231,0 7.46957113,0 C8.29447995,0 9.01618182,0.523623512 9.63467673,1.57087054 L9.63467673,2.80552455 C11.7950029,3.67544023 12.5223057,5.50091456 11.8165852,8.28194754 C12.6597158,8.81456163 12.5458297,9.57860553 11.4749269,10.5740792 C11.0077325,11.8550812 10.2807284,12.6838418 9.29391456,13.0603609 C9.29391456,13.5050843 9.29391456,14.031808 9.29391456,14.640532 C14.5606056,15.7553633 16.1814477,17.5418527 14.1564406,20 C12.596537,20 8.1368317,20 0.777324695,20 C-1.11594784,17.8067646 0.449258024,16.0202753 5.47294228,14.640532 C5.47294228,14.2513021 5.47294228,13.7245784 5.47294228,13.0603609 C4.53765729,12.4516369 3.93969921,11.6228764 3.67906805,10.5740792 C2.94063799,10.5740792 1.94523607,8.73186384 3.23928098,8.28194754 C2.42266157,6.99730283 2.70943052,3.9687965 5.47294228,2.80552455 Z" id="icon/content/female-sm" fill="#C862E7"></path>
    </g>
</svg>
