<?xml version="1.0" encoding="UTF-8"?>
<svg width="17px" height="18px" viewBox="0 0 17 18" version="1.1" xmlns="http://www.w3.org/2000/svg" xmlns:xlink="http://www.w3.org/1999/xlink">
    <!-- Generator: Sketch 55.2 (78181) - https://sketchapp.com -->
    <title>icon/content/male-sm</title>
    <desc>Created with Sketch.</desc>
    <g id="页面1" stroke="none" stroke-width="1" fill="none" fill-rule="evenodd">
        <path d="M4.59372725,6.0955424 C3.2163175,1.51209575 5.4207016,0 7.69564751,0 C9.61172806,0 10.0753414,0.358607751 10.5893982,0.668733311 C12.3309092,0.668733311 13.3639927,2.0183957 12.3309092,6.0955424 C13.9137935,6.0955424 12.1289244,8.56530345 11.8226689,8.13655071 C11.8226689,8.58702236 11.8226689,8.90011626 11.8226689,9.07583242 C11.5406657,10.0003039 11.1295754,10.4625397 10.5893982,10.4625397 C10.5893982,11.1452969 10.5893982,11.8030596 10.5893982,12.7158949 C13.5857532,13.9340055 16.9090909,15.2946065 16.9090909,18 C12.4156512,18 6.78461045,18 0.0159685911,18 C-0.201737913,15.9615552 1.80661869,14.2335129 6.0410384,12.8158731 C6.0410384,12.3117094 6.0410384,11.5272649 6.0410384,10.4625397 C5.41104315,9.84609168 5.09604553,9.38385593 5.09604553,9.07583242 C5.09604553,8.76780891 5.09604553,8.56986086 5.09604553,8.48198826 C3.81039274,7.38963367 3.64295331,6.59415171 4.59372725,6.0955424 Z" id="icon/content/male-sm" fill="#1891FB"></path>
    </g>
</svg>
