<?xml version="1.0" encoding="UTF-8"?>
<svg width="16px" height="16px" viewBox="0 0 16 16" version="1.1" xmlns="http://www.w3.org/2000/svg" xmlns:xlink="http://www.w3.org/1999/xlink">
    <!-- Generator: Sketch 55.2 (78181) - https://sketchapp.com -->
    <title>icon/content/top-c</title>
    <desc>Created with Sketch.</desc>
    <g id="页面1" stroke="none" stroke-width="1" fill="none" fill-rule="evenodd">
        <g id="首页" transform="translate(-1088.000000, -384.000000)" fill="#FFA74C" fill-rule="nonzero">
            <path d="M1096,400 C1091.58224,400 1088,396.418232 1088,392 C1088,387.581786 1091.58224,384 1096,384 C1100.41938,384 1104,387.581768 1104,392 C1104,396.41825 1100.41938,400 1096,400 L1096,400 Z M1098.22617,390.284121 C1098.22617,389.792835 1098.03938,389.352933 1097.6691,388.962817 C1097.21827,388.487599 1096.61933,388.25 1095.87235,388.25 C1095.43601,388.25 1095.04159,388.331905 1094.69066,388.495643 C1094.33968,388.660997 1094.0643,388.887375 1093.86797,389.174742 C1093.67149,389.463726 1093.52499,389.847451 1093.42683,390.329077 L1094.83066,390.566659 C1094.87091,390.221517 1094.98204,389.958207 1095.16559,389.778382 C1095.34911,389.598594 1095.5697,389.508682 1095.82887,389.508682 C1096.09133,389.508682 1096.30058,389.587337 1096.46002,389.746281 C1096.61771,389.905226 1096.69665,390.117133 1096.69665,390.383638 C1096.69665,390.696716 1096.58872,390.947152 1096.37306,391.136618 C1096.15566,391.32445 1095.84176,391.414344 1095.43122,391.403123 L1095.26373,392.632917 C1095.53426,392.555824 1095.76767,392.518911 1095.96253,392.518911 C1096.25875,392.518911 1096.50995,392.631301 1096.71597,392.854484 C1096.92048,393.077613 1097.02347,393.381067 1097.02347,393.764756 C1097.02347,394.169325 1096.9157,394.490427 1096.70148,394.728027 C1096.48743,394.967224 1096.2233,395.086042 1095.9094,395.086042 C1095.6164,395.086042 1095.36682,394.986489 1095.16242,394.789015 C1094.95629,394.591561 1094.83067,394.305773 1094.78246,393.931689 L1093.3125,394.109898 C1093.38821,394.77616 1093.66185,395.315598 1094.13357,395.728193 C1094.60694,396.139171 1095.20102,396.346285 1095.91905,396.346285 C1096.67734,396.346285 1097.31011,396.100661 1097.81888,395.610991 C1098.3275,395.119723 1098.58197,394.527304 1098.58197,393.832136 C1098.58197,393.352107 1098.44512,392.942726 1098.17306,392.603975 C1097.90091,392.265224 1097.53706,392.046889 1097.08146,391.950549 C1097.84463,391.534759 1098.22617,390.979271 1098.22617,390.284121 L1098.22617,390.284121 Z" id="icon/content/top-c"></path>
        </g>
    </g>
</svg>