<?xml version="1.0" encoding="UTF-8"?>
<svg width="16px" height="16px" viewBox="0 0 16 16" version="1.1" xmlns="http://www.w3.org/2000/svg" xmlns:xlink="http://www.w3.org/1999/xlink">
    <!-- Generator: Sketch 55.2 (78181) - https://sketchapp.com -->
    <title>icon/content/top-e</title>
    <desc>Created with Sketch.</desc>
    <g id="页面1" stroke="none" stroke-width="1" fill="none" fill-rule="evenodd">
        <g id="首页" transform="translate(-1088.000000, -468.000000)" fill-rule="nonzero">
            <g id="icon/content/top-e" transform="translate(1088.000000, 468.000000)">
                <path d="M8.00083756,16 C3.58181941,16 0,12.418569 0,8.0007989 C0,3.58141287 3.58183763,0 8.00083756,0 C12.418126,0 16,3.58141287 16,8.0007989 C16,12.418569 12.418126,16 8.00083756,16 L8.00083756,16 Z" id="路径" fill-opacity="0.04" fill="#001529"></path>
                <path d="M7.52752349,5.39219166 L10.3946287,5.39219166 L10.3946287,3.9682982 L6.37489132,3.9682982 L5.59577577,8.09871858 L6.82564581,8.27532987 C7.17174135,7.8916583 7.56450371,7.69901453 8.00083756,7.69901453 C8.35166716,7.69901453 8.63667524,7.82102831 8.85558868,8.06340357 C9.07297267,8.30741296 9.18242028,8.67182016 9.18242028,9.15824113 C9.18242028,9.67672704 9.07295445,10.0652102 8.85400459,10.3220746 C8.63509115,10.5805368 8.36619705,10.7089418 8.05070896,10.7089418 C7.77223751,10.7089418 7.52752349,10.6078083 7.31663971,10.4087552 C7.10409904,10.2080861 6.97688051,9.93678705 6.93356395,9.59327834 L5.41380612,9.75058895 C5.50397158,10.4151827 5.78085895,10.944944 6.24124541,11.3382387 C6.70328879,11.7331312 7.30052575,11.9305865 8.0330109,11.9305865 C8.94895873,11.9305865 9.6653299,11.5806321 10.1820698,10.8807233 C10.5603751,10.3686468 10.7503562,9.78592209 10.7503562,9.13254925 C10.7503562,8.35078957 10.5152923,7.71346734 10.0453649,7.22385078 C9.57523726,6.7326364 9.00216218,6.48701106 8.32439174,6.48701106 C7.97026652,6.48701106 7.62417098,6.57211204 7.28282768,6.74066173 L7.52752349,5.39219166 L7.52752349,5.39219166 Z" id="路径" fill-opacity="0.85" fill="#000000"></path>
            </g>
        </g>
    </g>
</svg>