<?xml version="1.0" encoding="UTF-8"?>
<svg width="17px" height="17px" viewBox="0 0 17 17" version="1.1" xmlns="http://www.w3.org/2000/svg" xmlns:xlink="http://www.w3.org/1999/xlink">
    <!-- Generator: Sketch 55.2 (78181) - https://sketchapp.com -->
    <title>icon/content/top-a</title>
    <desc>Created with Sketch.</desc>
    <g id="页面1" stroke="none" stroke-width="1" fill="none" fill-rule="evenodd">
        <g id="首页" transform="translate(-1087.000000, -300.000000)" fill="#FFA74C" fill-rule="nonzero">
            <path d="M1095.97564,316.955064 C1091.55672,316.955064 1087.97484,313.373656 1087.97484,308.954275 C1087.97484,304.536473 1091.55672,300.955064 1095.97564,300.955064 C1100.39301,300.955064 1103.97484,304.536473 1103.97484,308.954275 C1103.97484,313.373656 1100.39301,316.955064 1095.97564,316.955064 L1095.97564,316.955064 Z M1097.45526,304.955064 L1096.22377,304.955064 C1096.05,305.439851 1095.73116,305.862032 1095.26587,306.226457 C1094.80228,306.589248 1094.37083,306.834855 1093.97484,306.964876 L1093.97484,308.340616 C1094.72832,308.091795 1095.38188,307.70974 1095.93561,307.191237 L1095.93561,312.917344 L1097.45526,312.917344 L1097.45526,304.955064 L1097.45526,304.955064 Z" id="icon/content/top-a"></path>
        </g>
    </g>
</svg>