<?xml version="1.0" encoding="UTF-8"?>
<svg width="17px" height="17px" viewBox="0 0 17 17" version="1.1" xmlns="http://www.w3.org/2000/svg" xmlns:xlink="http://www.w3.org/1999/xlink">
    <!-- Generator: Sketch 55.2 (78181) - https://sketchapp.com -->
    <title>icon/content/top-b</title>
    <desc>Created with Sketch.</desc>
    <g id="页面1" stroke="none" stroke-width="1" fill="none" fill-rule="evenodd">
        <g id="首页" transform="translate(-1087.000000, -341.000000)" fill="#FFA74C" fill-rule="nonzero">
            <path d="M1095.97396,357.95572 C1091.55673,357.95572 1087.97483,354.373928 1087.97483,349.95572 C1087.97483,345.537513 1091.55673,341.95572 1095.97396,341.95572 C1100.39296,341.95572 1103.97483,345.537494 1103.97483,349.955702 C1103.97483,354.373909 1100.39298,357.95572 1095.97396,357.95572 L1095.97396,357.95572 Z M1098.30168,352.504351 L1095.28002,352.504351 C1095.35891,352.366292 1095.46195,352.226599 1095.59079,352.08213 C1095.7179,351.937643 1096.02221,351.645455 1096.50344,351.205549 C1096.9848,350.76566 1097.31651,350.42853 1097.50156,350.194141 C1097.77854,349.840922 1097.9813,349.503792 1098.11014,349.181098 C1098.23732,348.858386 1098.30168,348.518042 1098.30168,348.161628 C1098.30168,347.533908 1098.07796,347.010509 1097.63202,346.58827 C1097.18445,346.166049 1096.5695,345.95572 1095.78873,345.95572 C1095.07561,345.95572 1094.48156,346.137123 1094.00503,346.501581 C1093.53013,346.866022 1093.24685,347.466449 1093.15671,348.304499 L1094.67639,348.455414 C1094.70538,348.010713 1094.81318,347.692831 1094.99834,347.501786 C1095.18504,347.310741 1095.4362,347.21441 1095.75171,347.21441 C1096.07047,347.21441 1096.32003,347.30591 1096.50027,347.487332 C1096.68224,347.670351 1096.77239,347.930434 1096.77239,348.269199 C1096.77239,348.575859 1096.66769,348.885696 1096.4585,349.200364 C1096.30386,349.428326 1095.88534,349.860207 1095.20114,350.499185 C1094.35112,351.289059 1093.78134,351.923225 1093.4931,352.40003 C1093.20497,352.878469 1093.03266,353.384182 1092.97483,353.917188 L1098.30168,353.917188 L1098.30168,352.504351 L1098.30168,352.504351 Z" id="icon/content/top-b"></path>
        </g>
    </g>
</svg>