<?xml version="1.0" encoding="UTF-8"?>
<svg width="16px" height="16px" viewBox="0 0 16 16" version="1.1" xmlns="http://www.w3.org/2000/svg" xmlns:xlink="http://www.w3.org/1999/xlink">
    <!-- Generator: Sketch 55.2 (78181) - https://sketchapp.com -->
    <title>icon/content/top-d</title>
    <desc>Created with Sketch.</desc>
    <g id="页面1" stroke="none" stroke-width="1" fill="none" fill-rule="evenodd">
        <g id="首页" transform="translate(-1088.000000, -426.000000)" fill-rule="nonzero">
            <g id="icon/content/top-d" transform="translate(1088.000000, 426.000000)">
                <path d="M8.00083756,16 C3.58183763,16 0,12.4185671 0,8.0007989 C0,3.58141478 3.58185584,0 8.00083756,0 C12.4181077,0 16,3.58141478 16,8.0007989 C16,12.4185671 12.4181077,16 8.00083756,16 L8.00083756,16 Z" id="路径" fill-opacity="0.04" fill="#001529"></path>
                <polygon id="路径" fill-opacity="0.85" fill="#000000" points="10.3666231 8.74262302 9.4439758 8.74262302 9.4439758 4 8.24247793 4 5 8.74715152 5 9.99060977 8.05913092 9.99060977 8.05913092 11.4939186 9.4439758 11.4939186 9.4439758 9.99060977 10.3666231 9.99060977"></polygon>
                <polygon id="路径" fill="#F5F6F7" points="8.08250065 8.65296724 6.08250065 8.65296724 8.08250065 6.10113085"></polygon>
            </g>
        </g>
    </g>
</svg>